<mxfile host="app.diagrams.net" modified="2023-04-09T14:38:12.373Z" agent="Mozilla/5.0 (X11; Linux x86_64) AppleWebKit/537.36 (KHTML, like Gecko) Chrome/112.0.0.0 Safari/537.36" etag="HO9vBC3qqQnIMf5hQUC-" version="21.1.5" type="github">
  <diagram name="Page-1" id="Xy1gOWUjBvKfhaWI0y1S">
    <mxGraphModel dx="1434" dy="806" grid="1" gridSize="10" guides="1" tooltips="1" connect="1" arrows="1" fold="1" page="1" pageScale="1" pageWidth="850" pageHeight="1100" math="0" shadow="0">
      <root>
        <mxCell id="0" />
        <mxCell id="1" parent="0" />
        <mxCell id="m0ycO0D3E9G1RjMYf2ak-1" value="User" style="rounded=0;whiteSpace=wrap;html=1;" vertex="1" parent="1">
          <mxGeometry x="260" y="310" width="120" height="20" as="geometry" />
        </mxCell>
        <mxCell id="m0ycO0D3E9G1RjMYf2ak-9" style="edgeStyle=orthogonalEdgeStyle;rounded=0;orthogonalLoop=1;jettySize=auto;html=1;exitX=0;exitY=0.5;exitDx=0;exitDy=0;entryX=1;entryY=0.5;entryDx=0;entryDy=0;endArrow=ERmany;endFill=0;" edge="1" parent="1" source="m0ycO0D3E9G1RjMYf2ak-2" target="m0ycO0D3E9G1RjMYf2ak-4">
          <mxGeometry relative="1" as="geometry" />
        </mxCell>
        <mxCell id="m0ycO0D3E9G1RjMYf2ak-2" value="role" style="rounded=0;whiteSpace=wrap;html=1;" vertex="1" parent="1">
          <mxGeometry x="260" y="450" width="120" height="30" as="geometry" />
        </mxCell>
        <mxCell id="m0ycO0D3E9G1RjMYf2ak-3" value="Roles" style="rounded=0;whiteSpace=wrap;html=1;" vertex="1" parent="1">
          <mxGeometry x="40" y="430" width="120" height="20" as="geometry" />
        </mxCell>
        <mxCell id="m0ycO0D3E9G1RjMYf2ak-4" value="id" style="rounded=0;whiteSpace=wrap;html=1;" vertex="1" parent="1">
          <mxGeometry x="40" y="450" width="120" height="30" as="geometry" />
        </mxCell>
        <mxCell id="m0ycO0D3E9G1RjMYf2ak-5" value="name" style="rounded=0;whiteSpace=wrap;html=1;" vertex="1" parent="1">
          <mxGeometry x="40" y="480" width="120" height="30" as="geometry" />
        </mxCell>
        <mxCell id="m0ycO0D3E9G1RjMYf2ak-6" value="permissions" style="rounded=0;whiteSpace=wrap;html=1;" vertex="1" parent="1">
          <mxGeometry x="40" y="510" width="120" height="30" as="geometry" />
        </mxCell>
        <mxCell id="m0ycO0D3E9G1RjMYf2ak-18" style="edgeStyle=orthogonalEdgeStyle;rounded=0;orthogonalLoop=1;jettySize=auto;html=1;exitX=1;exitY=0.5;exitDx=0;exitDy=0;entryX=0;entryY=0.5;entryDx=0;entryDy=0;endArrow=none;endFill=0;" edge="1" parent="1" source="m0ycO0D3E9G1RjMYf2ak-11" target="m0ycO0D3E9G1RjMYf2ak-17">
          <mxGeometry relative="1" as="geometry" />
        </mxCell>
        <mxCell id="m0ycO0D3E9G1RjMYf2ak-11" value="id" style="rounded=0;whiteSpace=wrap;html=1;" vertex="1" parent="1">
          <mxGeometry x="260" y="330" width="120" height="30" as="geometry" />
        </mxCell>
        <mxCell id="m0ycO0D3E9G1RjMYf2ak-12" value="first_name" style="rounded=0;whiteSpace=wrap;html=1;" vertex="1" parent="1">
          <mxGeometry x="260" y="360" width="120" height="30" as="geometry" />
        </mxCell>
        <mxCell id="m0ycO0D3E9G1RjMYf2ak-13" value="second_name" style="rounded=0;whiteSpace=wrap;html=1;" vertex="1" parent="1">
          <mxGeometry x="260" y="390" width="120" height="30" as="geometry" />
        </mxCell>
        <mxCell id="m0ycO0D3E9G1RjMYf2ak-14" value="third_name" style="rounded=0;whiteSpace=wrap;html=1;" vertex="1" parent="1">
          <mxGeometry x="260" y="420" width="120" height="30" as="geometry" />
        </mxCell>
        <mxCell id="m0ycO0D3E9G1RjMYf2ak-15" value="student_group" style="rounded=0;whiteSpace=wrap;html=1;" vertex="1" parent="1">
          <mxGeometry x="570" y="390" width="120" height="25" as="geometry" />
        </mxCell>
        <mxCell id="m0ycO0D3E9G1RjMYf2ak-16" value="id" style="rounded=0;whiteSpace=wrap;html=1;" vertex="1" parent="1">
          <mxGeometry x="570" y="415" width="120" height="30" as="geometry" />
        </mxCell>
        <mxCell id="m0ycO0D3E9G1RjMYf2ak-17" value="user_id" style="rounded=0;whiteSpace=wrap;html=1;" vertex="1" parent="1">
          <mxGeometry x="570" y="445" width="120" height="30" as="geometry" />
        </mxCell>
        <mxCell id="m0ycO0D3E9G1RjMYf2ak-19" value="group_identifier" style="rounded=0;whiteSpace=wrap;html=1;" vertex="1" parent="1">
          <mxGeometry x="570" y="475" width="120" height="30" as="geometry" />
        </mxCell>
        <mxCell id="m0ycO0D3E9G1RjMYf2ak-20" value="course_count" style="rounded=0;whiteSpace=wrap;html=1;" vertex="1" parent="1">
          <mxGeometry x="570" y="505" width="120" height="30" as="geometry" />
        </mxCell>
        <mxCell id="m0ycO0D3E9G1RjMYf2ak-21" value="schedule" style="rounded=0;whiteSpace=wrap;html=1;" vertex="1" parent="1">
          <mxGeometry x="425" y="630" width="120" height="20" as="geometry" />
        </mxCell>
        <mxCell id="m0ycO0D3E9G1RjMYf2ak-22" value="id" style="rounded=0;whiteSpace=wrap;html=1;" vertex="1" parent="1">
          <mxGeometry x="425" y="650" width="120" height="30" as="geometry" />
        </mxCell>
        <mxCell id="m0ycO0D3E9G1RjMYf2ak-23" value="subject_name" style="rounded=0;whiteSpace=wrap;html=1;" vertex="1" parent="1">
          <mxGeometry x="425" y="680" width="120" height="30" as="geometry" />
        </mxCell>
        <mxCell id="m0ycO0D3E9G1RjMYf2ak-27" style="edgeStyle=orthogonalEdgeStyle;rounded=0;orthogonalLoop=1;jettySize=auto;html=1;exitX=0;exitY=0.5;exitDx=0;exitDy=0;entryX=1;entryY=0.5;entryDx=0;entryDy=0;endArrow=none;endFill=0;" edge="1" parent="1" source="m0ycO0D3E9G1RjMYf2ak-24" target="m0ycO0D3E9G1RjMYf2ak-11">
          <mxGeometry relative="1" as="geometry" />
        </mxCell>
        <mxCell id="m0ycO0D3E9G1RjMYf2ak-24" value="teacher" style="rounded=0;whiteSpace=wrap;html=1;" vertex="1" parent="1">
          <mxGeometry x="425" y="710" width="120" height="30" as="geometry" />
        </mxCell>
        <mxCell id="m0ycO0D3E9G1RjMYf2ak-28" style="edgeStyle=orthogonalEdgeStyle;rounded=0;orthogonalLoop=1;jettySize=auto;html=1;exitX=1;exitY=0.5;exitDx=0;exitDy=0;entryX=1;entryY=0.5;entryDx=0;entryDy=0;endArrow=ERmany;endFill=0;" edge="1" parent="1" source="m0ycO0D3E9G1RjMYf2ak-25" target="m0ycO0D3E9G1RjMYf2ak-16">
          <mxGeometry relative="1" as="geometry" />
        </mxCell>
        <mxCell id="m0ycO0D3E9G1RjMYf2ak-25" value="student_group" style="rounded=0;whiteSpace=wrap;html=1;" vertex="1" parent="1">
          <mxGeometry x="425" y="740" width="120" height="30" as="geometry" />
        </mxCell>
      </root>
    </mxGraphModel>
  </diagram>
</mxfile>
